<svg xmlns="http://www.w3.org/2000/svg" version="1.1" width="1886" height="911" preserveAspectRatio="none" id="SVG" style="stroke-width: 2px; font-size: 11px; font-family: sans-serif; shape-rendering: crispEdges;" viewBox="-26.44179916381836 -117.53522491455078 2043.64013671875 1050.302978515625"><rect x="0" y="0" width="1886" height="911" fill="white"></rect><line x1="1883.9188475924532" y1="607.3333333333334" x2="1874.6043509422545" y2="607.3333333333334" vector-effect="non-scaling-stroke" stroke="black" stroke-opacity="0.4" stroke-width="6" class="errorBar"></line><line x1="1857.9843640406666" y1="485.8666666666667" x2="1768.10922612685" y2="485.8666666666667" vector-effect="non-scaling-stroke" stroke="black" stroke-opacity="0.4" stroke-width="6" class="errorBar"></line><line x1="1634.4120005290206" y1="303.6666666666667" x2="1532.5675570189567" y2="303.6666666666667" vector-effect="non-scaling-stroke" stroke="black" stroke-opacity="0.4" stroke-width="6" class="errorBar"></line><line x1="1530.3894954656655" y1="242.9333333333334" x2="1489.486539272988" y2="242.9333333333334" vector-effect="non-scaling-stroke" stroke="black" stroke-opacity="0.4" stroke-width="6" class="errorBar"></line><line x1="1592.1951843415707" y1="182.19999999999996" x2="1443.6382523676034" y2="182.19999999999996" vector-effect="non-scaling-stroke" stroke="black" stroke-opacity="0.4" stroke-width="6" class="errorBar"></line><line x1="1248.602325965596" y1="121.46666666666664" x2="1157.7220691942725" y2="121.46666666666664" vector-effect="non-scaling-stroke" stroke="black" stroke-opacity="0.4" stroke-width="6" class="errorBar"></line><line x1="1195.3319386038022" y1="60.73333333333332" x2="846.44533263348" y2="60.73333333333332" vector-effect="non-scaling-stroke" stroke="black" stroke-opacity="0.4" stroke-width="6" class="errorBar"></line><line x1="966.3208058114717" y1="0" x2="846.4316513423162" y2="0" vector-effect="non-scaling-stroke" stroke="black" stroke-opacity="0.4" stroke-width="6" class="errorBar"></line><line x1="1827.0071845873902" y1="880.6333333333333" x2="1691.7986323589898" y2="880.6333333333333" vector-effect="non-scaling-stroke" stroke="black" stroke-opacity="0.4" stroke-width="6" class="errorBar"></line><line x1="1811.547325572196" y1="835.0833333333333" x2="1658.1832439262769" y2="835.0833333333333" vector-effect="non-scaling-stroke" stroke="black" stroke-opacity="0.4" stroke-width="6" class="errorBar"></line><line x1="1863.8059358481166" y1="698.4333333333333" x2="1772.5802720792087" y2="698.4333333333333" vector-effect="non-scaling-stroke" stroke="black" stroke-opacity="0.4" stroke-width="6" class="errorBar"></line><line x1="1832.0902402978136" y1="652.8833333333333" x2="1662.6998941825154" y2="652.8833333333333" vector-effect="non-scaling-stroke" stroke="black" stroke-opacity="0.4" stroke-width="6" class="errorBar"></line><line x1="1798.377714697837" y1="743.9833333333333" x2="1604.2132865429694" y2="743.9833333333333" vector-effect="non-scaling-stroke" stroke="black" stroke-opacity="0.4" stroke-width="6" class="errorBar"></line><line x1="1726.7110071940394" y1="645.2916666666666" x2="1421.3696707831807" y2="645.2916666666666" vector-effect="non-scaling-stroke" stroke="black" stroke-opacity="0.4" stroke-width="6" class="errorBar"></line><line x1="1783.4869973950608" y1="455.5" x2="1504.6549867863912" y2="455.5" vector-effect="non-scaling-stroke" stroke="black" stroke-opacity="0.4" stroke-width="6" class="errorBar"></line><line x1="1616.8379259859669" y1="550.3958333333333" x2="1150.4937870293513" y2="550.3958333333333" vector-effect="non-scaling-stroke" stroke="black" stroke-opacity="0.4" stroke-width="6" class="errorBar"></line><line x1="1582.1471880677723" y1="364.40000000000003" x2="1512.0843839314214" y2="364.40000000000003" vector-effect="non-scaling-stroke" stroke="black" stroke-opacity="0.4" stroke-width="6" class="errorBar"></line><line x1="1537.1430368271997" y1="334.03333333333336" x2="1409.681287698832" y2="334.03333333333336" vector-effect="non-scaling-stroke" stroke="black" stroke-opacity="0.4" stroke-width="6" class="errorBar"></line><line x1="1472.6503423667068" y1="242.9333333333334" x2="1443.6387084106423" y2="242.9333333333334" vector-effect="non-scaling-stroke" stroke="black" stroke-opacity="0.4" stroke-width="6" class="errorBar"></line><line x1="1476.9886797947759" y1="212.56666666666672" x2="1388.6349014583834" y2="212.56666666666672" vector-effect="non-scaling-stroke" stroke="black" stroke-opacity="0.4" stroke-width="6" class="errorBar"></line><line x1="1442.9997921132885" y1="273.30000000000007" x2="1354.199091598876" y2="273.30000000000007" vector-effect="non-scaling-stroke" stroke="black" stroke-opacity="0.4" stroke-width="6" class="errorBar"></line><line x1="1370.028345475495" y1="273.30000000000007" x2="1347.8874559419353" y2="273.30000000000007" vector-effect="non-scaling-stroke" stroke="black" stroke-opacity="0.4" stroke-width="6" class="errorBar"></line><line x1="1145.9059940590605" y1="121.46666666666664" x2="1115.3146270166058" y2="121.46666666666664" vector-effect="non-scaling-stroke" stroke="black" stroke-opacity="0.4" stroke-width="6" class="errorBar"></line><line x1="1139.3891390346616" y1="197.38333333333335" x2="817.6188521511668" y2="197.38333333333335" vector-effect="non-scaling-stroke" stroke="black" stroke-opacity="0.4" stroke-width="6" class="errorBar"></line><line x1="1139.2705678445748" y1="373.8895833333333" x2="555.7543788439519" y2="373.8895833333333" vector-effect="non-scaling-stroke" stroke="black" stroke-opacity="0.4" stroke-width="6" class="errorBar"></line><line x1="1045.4853169161188" y1="217.31145833333332" x2="404.39825469785296" y2="217.31145833333332" vector-effect="non-scaling-stroke" stroke="black" stroke-opacity="0.4" stroke-width="6" class="errorBar"></line><line x1="817.609731290391" y1="108.65572916666666" x2="-6.441798092944616" y2="108.65572916666666" vector-effect="non-scaling-stroke" stroke="black" stroke-opacity="0.4" stroke-width="6" class="errorBar"></line><path d="M 1885.9999999999995 911 H 1762.6596942304493 V 880.6333333333333" fill="none" stroke="black" stroke-opacity="1" class="treeEdge" vector-effect="non-scaling-stroke" id="node#21"></path><path d="M 1885.9999999999995 850.2666666666667 H 1762.6596942304493 V 880.6333333333333" fill="none" stroke="black" stroke-opacity="1" class="treeEdge" vector-effect="non-scaling-stroke" id="node#22"></path><path d="M 1885.9999999999995 789.5333333333334 H 1759.937071684532 V 835.0833333333333" fill="none" stroke="black" stroke-opacity="1" class="treeEdge" vector-effect="non-scaling-stroke" id="node#23"></path><path d="M 1886 728.8000000000001 H 1866.5118672188144 V 698.4333333333333" fill="none" stroke="black" stroke-opacity="1" class="treeEdge" vector-effect="non-scaling-stroke" id="node#26"></path><path d="M 1886 668.0666666666667 H 1866.5118672188144 V 698.4333333333333" fill="none" stroke="black" stroke-opacity="1" class="treeEdge" vector-effect="non-scaling-stroke" id="node#27"></path><path d="M 1880.737901792545 607.3333333333334 H 1805.1131511507308 V 652.8833333333333" fill="none" stroke="black" stroke-opacity="1" class="treeEdge" vector-effect="non-scaling-stroke" id="node#28"></path><path d="M 1886 546.6 H 1486.8722725530881 V 645.2916666666666" fill="none" stroke="black" stroke-opacity="1" class="treeEdge" vector-effect="non-scaling-stroke" id="node#29"></path><path d="M 1778.7126372175983 485.8666666666667 H 1631.3573330465554 V 455.5" fill="none" stroke="black" stroke-opacity="1" class="treeEdge" vector-effect="non-scaling-stroke" id="node#31"></path><path d="M 1886 425.1333333333333 H 1631.3573330465554 V 455.5" fill="none" stroke="black" stroke-opacity="1" class="treeEdge" vector-effect="non-scaling-stroke" id="node#32"></path><path d="M 1885.9999999999995 364.40000000000003 H 1519.5796792955578 V 364.40000000000003" fill="none" stroke="black" stroke-opacity="1" class="treeEdge" vector-effect="non-scaling-stroke" id="node#8"></path><path d="M 1532.67445350725 303.6666666666667 H 1494.543874156023 V 334.03333333333336" fill="none" stroke="black" stroke-opacity="1" class="treeEdge" vector-effect="non-scaling-stroke" id="node#9"></path><path d="M 1509.1348343693985 242.9333333333334 H 1444.1149541560567 V 242.9333333333334" fill="none" stroke="black" stroke-opacity="1" class="treeEdge" vector-effect="non-scaling-stroke" id="node#12"></path><path d="M 1456.21692267229 182.19999999999996 H 1441.6404646275482 V 212.56666666666672" fill="none" stroke="black" stroke-opacity="1" class="treeEdge" vector-effect="non-scaling-stroke" id="node#13"></path><path d="M 1203.1810321574364 121.46666666666664 H 1156.9392713181783 V 121.46666666666664" fill="none" stroke="black" stroke-opacity="1" class="treeEdge" vector-effect="non-scaling-stroke" id="node#15"></path><path d="M 1237.902826606573 60.73333333333332 H 783.5727766726145 V 217.31145833333332" fill="none" stroke="black" stroke-opacity="1" class="treeEdge" vector-effect="non-scaling-stroke" id="node#33"></path><path d="M 885.9423993461563 0 H 18.67326732673269 V 108.65572916666666" fill="none" stroke="black" stroke-opacity="1" class="treeEdge" vector-effect="non-scaling-stroke" id="node#34"></path><path d="M 1762.6596942304493 880.6333333333333 H 1759.937071684532 V 835.0833333333333" fill="none" stroke="black" stroke-opacity="1" class="treeEdge" vector-effect="non-scaling-stroke" id="node#20"></path><path d="M 1759.937071684532 835.0833333333333 H 1728.1099648198508 V 743.9833333333333" fill="none" stroke="black" stroke-opacity="1" class="treeEdge" vector-effect="non-scaling-stroke" id="node#19"></path><path d="M 1866.5118672188144 698.4333333333333 H 1805.1131511507308 V 652.8833333333333" fill="none" stroke="black" stroke-opacity="1" class="treeEdge" vector-effect="non-scaling-stroke" id="node#25"></path><path d="M 1805.1131511507308 652.8833333333333 H 1728.1099648198508 V 743.9833333333333" fill="none" stroke="black" stroke-opacity="1" class="treeEdge" vector-effect="non-scaling-stroke" id="node#24"></path><path d="M 1728.1099648198508 743.9833333333333 H 1486.8722725530881 V 645.2916666666666" fill="none" stroke="black" stroke-opacity="1" class="treeEdge" vector-effect="non-scaling-stroke" id="node#18"></path><path d="M 1486.8722725530881 645.2916666666666 H 1403.3481724147641 V 550.3958333333333" fill="none" stroke="black" stroke-opacity="1" class="treeEdge" vector-effect="non-scaling-stroke" id="node#17"></path><path d="M 1631.3573330465554 455.5 H 1403.3481724147641 V 550.3958333333333" fill="none" stroke="black" stroke-opacity="1" class="treeEdge" vector-effect="non-scaling-stroke" id="node#30"></path><path d="M 1403.3481724147641 550.3958333333333 H 921.6749219821772 V 373.8895833333333" fill="none" stroke="black" stroke-opacity="1" class="treeEdge" vector-effect="non-scaling-stroke" id="node#16"></path><path d="M 1519.5796792955578 364.40000000000003 H 1494.543874156023 V 334.03333333333336" fill="none" stroke="black" stroke-opacity="1" class="treeEdge" vector-effect="non-scaling-stroke" id="node#7"></path><path d="M 1494.543874156023 334.03333333333336 H 1378.5440371389377 V 273.30000000000007" fill="none" stroke="black" stroke-opacity="1" class="treeEdge" vector-effect="non-scaling-stroke" id="node#6"></path><path d="M 1444.1149541560567 242.9333333333334 H 1441.6404646275482 V 212.56666666666672" fill="none" stroke="black" stroke-opacity="1" class="treeEdge" vector-effect="non-scaling-stroke" id="node#11"></path><path d="M 1441.6404646275482 212.56666666666672 H 1378.5440371389377 V 273.30000000000007" fill="none" stroke="black" stroke-opacity="1" class="treeEdge" vector-effect="non-scaling-stroke" id="node#10"></path><path d="M 1378.5440371389377 273.30000000000007 H 1360.5486700366441 V 273.30000000000007" fill="none" stroke="black" stroke-opacity="1" class="treeEdge" vector-effect="non-scaling-stroke" id="node#5"></path><path d="M 1360.5486700366441 273.30000000000007 H 1120.47762707173 V 197.38333333333335" fill="none" stroke="black" stroke-opacity="1" class="treeEdge" vector-effect="non-scaling-stroke" id="node#4"></path><path d="M 1156.9392713181783 121.46666666666664 H 1120.47762707173 V 197.38333333333335" fill="none" stroke="black" stroke-opacity="1" class="treeEdge" vector-effect="non-scaling-stroke" id="node#14"></path><path d="M 1120.47762707173 197.38333333333335 H 921.6749219821772 V 373.8895833333333" fill="none" stroke="black" stroke-opacity="1" class="treeEdge" vector-effect="non-scaling-stroke" id="node#3"></path><path d="M 921.6749219821772 373.8895833333333 H 783.5727766726145 V 217.31145833333332" fill="none" stroke="black" stroke-opacity="1" class="treeEdge" vector-effect="non-scaling-stroke" id="node#2"></path><path d="M 783.5727766726145 217.31145833333332 H 18.67326732673269 V 108.65572916666666" fill="none" stroke="black" stroke-opacity="1" class="treeEdge" vector-effect="non-scaling-stroke" id="node#1"></path><path d="M 18.67326732673269 108.65572916666666 H 0 V 108.65572916666666" fill="none" stroke="black" stroke-opacity="1" class="treeEdge" vector-effect="non-scaling-stroke" id="node#0"></path><text x="1885.9999999999995" y="911" angle="-45" transform="matrix(1.08358 0 0 1.15291 0 0) matrix(1 0 0 1 -145.48 -120.827) rotate(-45 1886 911)">Ursus_americanus</text><text x="1885.9999999999995" y="850.2666666666667" angle="-45" transform="matrix(1.08358 0 0 1.15291 0 0) matrix(1 0 0 1 -145.48 -112.772) rotate(-45 1886 850.267)">Ursus_thibetanus</text><text x="1885.9999999999995" y="789.5333333333334" angle="-45" transform="matrix(1.08358 0 0 1.15291 0 0) matrix(1 0 0 1 -145.48 -104.717) rotate(-45 1886 789.533)">Helarctos_malayanus</text><text x="1886" y="728.8000000000001" angle="-45" transform="matrix(1.08358 0 0 1.15291 0 0) matrix(1 0 0 1 -145.48 -96.6616) rotate(-45 1886 728.8)">Ursus_arctos</text><text x="1886" y="668.0666666666667" angle="-45" transform="matrix(1.08358 0 0 1.15291 0 0) matrix(1 0 0 1 -145.48 -88.6065) rotate(-45 1886 668.067)">Ursus_maritimus</text><text x="1880.737901792545" y="607.3333333333334" angle="-45" transform="matrix(1.08358 0 0 1.15291 0 0) matrix(1 0 0 1 -145.074 -80.5514) rotate(-45 1880.74 607.333)">Ursus_spelaeus</text><text x="1886" y="546.6" angle="-45" transform="matrix(1.08358 0 0 1.15291 0 0) matrix(1 0 0 1 -145.48 -72.4962) rotate(-45 1886 546.6)">Melursus_ursinus</text><text x="1778.7126372175983" y="485.8666666666667" angle="-45" transform="matrix(1.08358 0 0 1.15291 0 0) matrix(1 0 0 1 -137.204 -64.4411) rotate(-45 1778.71 485.867)">Arctodus_simus</text><text x="1886" y="425.1333333333333" angle="-45" transform="matrix(1.08358 0 0 1.15291 0 0) matrix(1 0 0 1 -145.48 -56.386) rotate(-45 1886 425.133)">Tremarctos_ornatus</text><text x="1885.9999999999995" y="364.40000000000003" angle="-45" transform="matrix(1.08358 0 0 1.15291 0 0) matrix(1 0 0 1 -145.48 -48.3308) rotate(-45 1886 364.4)">Ailuropoda_melanoleuca</text><text x="1532.67445350725" y="303.6666666666667" angle="-45" transform="matrix(1.08358 0 0 1.15291 0 0) matrix(1 0 0 1 -118.226 -40.2757) rotate(-45 1532.67 303.667)">Agriarctos_spp</text><text x="1509.1348343693985" y="242.9333333333334" angle="-45" transform="matrix(1.08358 0 0 1.15291 0 0) matrix(1 0 0 1 -116.41 -32.2205) rotate(-45 1509.13 242.933)">Indarctos_vireti</text><text x="1456.21692267229" y="182.19999999999996" angle="-45" transform="matrix(1.08358 0 0 1.15291 0 0) matrix(1 0 0 1 -112.328 -24.1654) rotate(-45 1456.22 182.2)">Indarctos_punjabiensis</text><text x="1203.1810321574364" y="121.46666666666664" angle="-45" transform="matrix(1.08358 0 0 1.15291 0 0) matrix(1 0 0 1 -92.8097 -16.1103) rotate(-45 1203.18 121.467)">Ursavus_primaevus</text><text x="1237.902826606573" y="60.73333333333332" angle="-45" transform="matrix(1.08358 0 0 1.15291 0 0) matrix(1 0 0 1 -95.488 -8.05514) rotate(-45 1237.9 60.7333)">Ballusia_elmensis</text><text x="885.9423993461563" y="0" angle="-45" transform="matrix(1.08358 0 0 1.15291 0 0) matrix(1 0 0 1 -68.3389 0) rotate(-45 885.942 0.00000968144)">Zaragocyon_daamsi</text><text x="1767.6596942304493" y="880.6333333333333" angle="-45" transform="matrix(1.08358 0 0 1.15291 0 0) matrix(1 0 0 1 -136.352 -116.799) translate(0.385685 0) rotate(-45 1767.66 880.633)" pixelOffsetX="5" pixelOffsetY="0" class="internalText"></text><text x="1764.937071684532" y="835.0833333333333" angle="-45" transform="matrix(1.08358 0 0 1.15291 0 0) matrix(1 0 0 1 -136.142 -110.758) translate(0.385685 0) rotate(-45 1764.94 835.083)" pixelOffsetX="5" pixelOffsetY="0" class="internalText"></text><text x="1871.5118672188144" y="698.4333333333333" angle="-45" transform="matrix(1.08358 0 0 1.15291 0 0) matrix(1 0 0 1 -144.363 -92.6341) translate(0.385685 0) rotate(-45 1871.51 698.433)" pixelOffsetX="5" pixelOffsetY="0" class="internalText"></text><text x="1810.1131511507308" y="652.8833333333333" angle="-45" transform="matrix(1.08358 0 0 1.15291 0 0) matrix(1 0 0 1 -139.627 -86.5927) translate(0.385685 0) rotate(-45 1810.11 652.883)" pixelOffsetX="5" pixelOffsetY="0" class="internalText"></text><text x="1733.1099648198508" y="743.9833333333333" angle="-45" transform="matrix(1.08358 0 0 1.15291 0 0) matrix(1 0 0 1 -133.687 -98.6754) translate(0.385685 0) rotate(-45 1733.11 743.983)" pixelOffsetX="5" pixelOffsetY="0" class="internalText"></text><text x="1491.8722725530881" y="645.2916666666666" angle="-45" transform="matrix(1.08358 0 0 1.15291 0 0) matrix(1 0 0 1 -115.078 -85.5858) translate(0.385685 0) rotate(-45 1491.87 645.292)" pixelOffsetX="5" pixelOffsetY="0" class="internalText"></text><text x="1636.3573330465554" y="455.5" angle="-45" transform="matrix(1.08358 0 0 1.15291 0 0) matrix(1 0 0 1 -126.224 -60.4135) translate(0.385685 0) rotate(-45 1636.36 455.5)" pixelOffsetX="5" pixelOffsetY="0" class="internalText"></text><text x="1408.3481724147641" y="550.3958333333333" angle="-45" transform="matrix(1.08358 0 0 1.15291 0 0) matrix(1 0 0 1 -108.636 -72.9997) translate(0.385685 0) rotate(-45 1408.35 550.396)" pixelOffsetX="5" pixelOffsetY="0" class="internalText"></text><text x="1519.5796792955578" y="359.40000000000003" angle="-45" transform="matrix(1.08358 0 0 1.15291 0 0) matrix(1 0 0 1 -117.216 -47.6677) translate(0 -0.663156) rotate(-45 1519.58 359.4)" pixelOffsetX="0" pixelOffsetY="-5" class="internalText">Ailurarctos_lufengensis</text><text x="1499.543874156023" y="334.03333333333336" angle="-45" transform="matrix(1.08358 0 0 1.15291 0 0) matrix(1 0 0 1 -115.67 -44.3033) translate(0.385685 0) rotate(-45 1499.54 334.033)" pixelOffsetX="5" pixelOffsetY="0" class="internalText"></text><text x="1444.1149541560567" y="237.9333333333334" angle="-45" transform="matrix(1.08358 0 0 1.15291 0 0) matrix(1 0 0 1 -111.395 -31.5574) translate(0 -0.663156) rotate(-45 1444.11 237.933)" pixelOffsetX="0" pixelOffsetY="-5" class="internalText">Indarctos_arctoides</text><text x="1446.6404646275482" y="212.56666666666672" angle="-45" transform="matrix(1.08358 0 0 1.15291 0 0) matrix(1 0 0 1 -111.589 -28.193) translate(0.385685 0) rotate(-45 1446.64 212.567)" pixelOffsetX="5" pixelOffsetY="0" class="internalText"></text><text x="1383.5440371389377" y="273.30000000000007" angle="-45" transform="matrix(1.08358 0 0 1.15291 0 0) matrix(1 0 0 1 -106.722 -36.2481) translate(0.385685 0) rotate(-45 1383.54 273.3)" pixelOffsetX="5" pixelOffsetY="0" class="internalText"></text><text x="1360.5486700366441" y="268.30000000000007" angle="-45" transform="matrix(1.08358 0 0 1.15291 0 0) matrix(1 0 0 1 -104.949 -35.585) translate(0 -0.663156) rotate(-45 1360.55 268.3)" pixelOffsetX="0" pixelOffsetY="-5" class="internalText">Kretzoiarctos_beatrix</text><text x="1156.9392713181783" y="116.46666666666664" angle="-45" transform="matrix(1.08358 0 0 1.15291 0 0) matrix(1 0 0 1 -89.2427 -15.4471) translate(0 -0.663156) rotate(-45 1156.94 116.467)" pixelOffsetX="0" pixelOffsetY="-5" class="internalText">Ursavus_brevirhinus</text><text x="1125.47762707173" y="197.38333333333335" angle="-45" transform="matrix(1.08358 0 0 1.15291 0 0) matrix(1 0 0 1 -86.8159 -26.1792) translate(0.385685 0) rotate(-45 1125.48 197.383)" pixelOffsetX="5" pixelOffsetY="0" class="internalText"></text><text x="926.6749219821772" y="373.8895833333333" angle="-45" transform="matrix(1.08358 0 0 1.15291 0 0) matrix(1 0 0 1 -71.4809 -49.5894) translate(0.385685 0) rotate(-45 926.675 373.89)" pixelOffsetX="5" pixelOffsetY="0" class="internalText"></text><text x="788.5727766726145" y="217.31145833333332" angle="-45" transform="matrix(1.08358 0 0 1.15291 0 0) matrix(1 0 0 1 -60.8281 -28.8223) translate(0.385685 0) rotate(-45 788.573 217.311)" pixelOffsetX="5" pixelOffsetY="0" class="internalText"></text><text x="23.67326732673269" y="108.65572916666666" angle="-45" transform="matrix(1.08358 0 0 1.15291 0 0) matrix(1 0 0 1 -1.82608 -14.4111) translate(0.385685 0) rotate(-45 23.6733 108.656)" pixelOffsetX="5" pixelOffsetY="0" class="internalText"></text><ellipse cx="1519.5796792955578" cy="364.40000000000003" rx="4.334337511598622" ry="4.611648643317783" fill="black" shape-rendering="auto" class="internalNodeMark"></ellipse><ellipse cx="1444.1149541560567" cy="242.9333333333334" rx="4.334337511598622" ry="4.611648643317783" fill="black" shape-rendering="auto" class="internalNodeMark"></ellipse><ellipse cx="1360.5486700366441" cy="273.30000000000007" rx="4.334337511598622" ry="4.611648643317783" fill="black" shape-rendering="auto" class="internalNodeMark"></ellipse><ellipse cx="1156.9392713181783" cy="121.46666666666664" rx="4.334337511598622" ry="4.611648643317783" fill="black" shape-rendering="auto" class="internalNodeMark"></ellipse><line x1="1886" y1="932.7677536010742" x2="1886" y2="-117.53522491455087" stroke="gray" stroke-width="1px" vector-effect="non-scaling-stroke" class="axisComponent"></line><text x="1886" y="932.7677536010742" fill="gray" class="axisComponent" transform="matrix(1.08358 0 0 1.15291 0 0) matrix(1 0 0 1 -145.48 -123.714)">0</text><line x1="1429.9569612037149" y1="932.7677536010742" x2="1429.9569612037149" y2="-117.53522491455087" stroke="gray" stroke-width="1px" vector-effect="non-scaling-stroke" class="axisComponent"></line><text x="1429.9569612037149" y="932.7677536010742" fill="gray" class="axisComponent" transform="matrix(1.08358 0 0 1.15291 0 0) matrix(1 0 0 1 -110.302 -123.714)">10</text><line x1="973.9139224074296" y1="932.7677536010742" x2="973.9139224074296" y2="-117.53522491455087" stroke="gray" stroke-width="1px" vector-effect="non-scaling-stroke" class="axisComponent"></line><text x="973.9139224074296" y="932.7677536010742" fill="gray" class="axisComponent" transform="matrix(1.08358 0 0 1.15291 0 0) matrix(1 0 0 1 -75.1247 -123.714)">20</text><line x1="517.8708836111444" y1="932.7677536010742" x2="517.8708836111444" y2="-117.53522491455087" stroke="gray" stroke-width="1px" vector-effect="non-scaling-stroke" class="axisComponent"></line><text x="517.8708836111444" y="932.7677536010742" fill="gray" class="axisComponent" transform="matrix(1.08358 0 0 1.15291 0 0) matrix(1 0 0 1 -39.947 -123.714)">30</text><line x1="61.82784481485927" y1="932.7677536010742" x2="61.82784481485927" y2="-117.53522491455087" stroke="gray" stroke-width="1px" vector-effect="non-scaling-stroke" class="axisComponent"></line><text x="61.82784481485927" y="932.7677536010742" fill="gray" class="axisComponent" transform="matrix(1.08358 0 0 1.15291 0 0) matrix(1 0 0 1 -4.76921 -123.714)">40</text></svg>