<svg xmlns="http://www.w3.org/2000/svg" version="1.1" width="1886" height="911" preserveAspectRatio="none" id="SVG" style="stroke-width: 2px; font-size: 17px; font-family: sans-serif; shape-rendering: crispEdges;" viewBox="-20 -159.86219787597656 2115.93896484375 1093.690673828125"><rect x="0" y="0" width="1886" height="911" fill="white"></rect><line x1="1884.497064561343" y1="607.3333333333334" x2="1874.8881921296013" y2="607.3333333333334" vector-effect="non-scaling-stroke" stroke="black" stroke-opacity="0.4" stroke-width="6" class="errorBar"></line><line x1="1856.9880468138085" y1="485.8666666666667" x2="1768.092808577453" y2="485.8666666666667" vector-effect="non-scaling-stroke" stroke="black" stroke-opacity="0.4" stroke-width="6" class="errorBar"></line><line x1="1634.2145338932219" y1="303.6666666666667" x2="1532.5675570189567" y2="303.6666666666667" vector-effect="non-scaling-stroke" stroke="black" stroke-opacity="0.4" stroke-width="6" class="errorBar"></line><line x1="1530.3894954656655" y1="242.9333333333334" x2="1489.486539272988" y2="242.9333333333334" vector-effect="non-scaling-stroke" stroke="black" stroke-opacity="0.4" stroke-width="6" class="errorBar"></line><line x1="1590.3938143383257" y1="182.19999999999996" x2="1443.6382523676034" y2="182.19999999999996" vector-effect="non-scaling-stroke" stroke="black" stroke-opacity="0.4" stroke-width="6" class="errorBar"></line><line x1="1248.602325965596" y1="121.46666666666664" x2="1157.7220691942725" y2="121.46666666666664" vector-effect="non-scaling-stroke" stroke="black" stroke-opacity="0.4" stroke-width="6" class="errorBar"></line><line x1="1195.3319386038022" y1="60.73333333333332" x2="846.345003164945" y2="60.73333333333332" vector-effect="non-scaling-stroke" stroke="black" stroke-opacity="0.4" stroke-width="6" class="errorBar"></line><line x1="966.3208058114717" y1="0" x2="846.4316513423162" y2="0" vector-effect="non-scaling-stroke" stroke="black" stroke-opacity="0.4" stroke-width="6" class="errorBar"></line><line x1="1837.7100586649" y1="880.6333333333333" x2="1710.8635115958687" y2="880.6333333333333" vector-effect="non-scaling-stroke" stroke="black" stroke-opacity="0.4" stroke-width="6" class="errorBar"></line><line x1="1814.8481650870035" y1="835.0833333333333" x2="1663.5203156093098" y2="835.0833333333333" vector-effect="non-scaling-stroke" stroke="black" stroke-opacity="0.4" stroke-width="6" class="errorBar"></line><line x1="1864.6656681848556" y1="698.4333333333333" x2="1775.2175689725675" y2="698.4333333333333" vector-effect="non-scaling-stroke" stroke="black" stroke-opacity="0.4" stroke-width="6" class="errorBar"></line><line x1="1832.0902402978136" y1="652.8833333333333" x2="1662.6998941825154" y2="652.8833333333333" vector-effect="non-scaling-stroke" stroke="black" stroke-opacity="0.4" stroke-width="6" class="errorBar"></line><line x1="1794.1830308269887" y1="743.9833333333333" x2="1603.8306664334193" y2="743.9833333333333" vector-effect="non-scaling-stroke" stroke="black" stroke-opacity="0.4" stroke-width="6" class="errorBar"></line><line x1="1732.7668027062155" y1="645.2916666666666" x2="1421.6341757456826" y2="645.2916666666666" vector-effect="non-scaling-stroke" stroke="black" stroke-opacity="0.4" stroke-width="6" class="errorBar"></line><line x1="1782.8403283660475" y1="455.5" x2="1507.4345691078545" y2="455.5" vector-effect="non-scaling-stroke" stroke="black" stroke-opacity="0.4" stroke-width="6" class="errorBar"></line><line x1="1616.0024551388922" y1="550.3958333333333" x2="1154.8854814929593" y2="550.3958333333333" vector-effect="non-scaling-stroke" stroke="black" stroke-opacity="0.4" stroke-width="6" class="errorBar"></line><line x1="1586.1612788952573" y1="364.40000000000003" x2="1512.0843839314214" y2="364.40000000000003" vector-effect="non-scaling-stroke" stroke="black" stroke-opacity="0.4" stroke-width="6" class="errorBar"></line><line x1="1533.9352300923067" y1="334.03333333333336" x2="1409.681287698832" y2="334.03333333333336" vector-effect="non-scaling-stroke" stroke="black" stroke-opacity="0.4" stroke-width="6" class="errorBar"></line><line x1="1473.1725116461284" y1="242.9333333333334" x2="1443.6387084106423" y2="242.9333333333334" vector-effect="non-scaling-stroke" stroke="black" stroke-opacity="0.4" stroke-width="6" class="errorBar"></line><line x1="1481.1377593617442" y1="212.56666666666672" x2="1388.6349014583834" y2="212.56666666666672" vector-effect="non-scaling-stroke" stroke="black" stroke-opacity="0.4" stroke-width="6" class="errorBar"></line><line x1="1442.4602931983925" y1="273.30000000000007" x2="1354.5730468906888" y2="273.30000000000007" vector-effect="non-scaling-stroke" stroke="black" stroke-opacity="0.4" stroke-width="6" class="errorBar"></line><line x1="1370.1788396782977" y1="273.30000000000007" x2="1347.8920163723233" y2="273.30000000000007" vector-effect="non-scaling-stroke" stroke="black" stroke-opacity="0.4" stroke-width="6" class="errorBar"></line><line x1="1144.8388533482773" y1="121.46666666666664" x2="1115.3191874469937" y2="121.46666666666664" vector-effect="non-scaling-stroke" stroke="black" stroke-opacity="0.4" stroke-width="6" class="errorBar"></line><line x1="1139.3891390346616" y1="197.38333333333335" x2="842.3956704489691" y2="197.38333333333335" vector-effect="non-scaling-stroke" stroke="black" stroke-opacity="0.4" stroke-width="6" class="errorBar"></line><line x1="1139.2705678445748" y1="373.8895833333333" x2="642.6670611777479" y2="373.8895833333333" vector-effect="non-scaling-stroke" stroke="black" stroke-opacity="0.4" stroke-width="6" class="errorBar"></line><line x1="1041.2304353641493" y1="217.31145833333332" x2="432.85077988835303" y2="217.31145833333332" vector-effect="non-scaling-stroke" stroke="black" stroke-opacity="0.4" stroke-width="6" class="errorBar"></line><line x1="812.5886974332437" y1="108.65572916666666" x2="30.976533240290784" y2="108.65572916666666" vector-effect="non-scaling-stroke" stroke="black" stroke-opacity="0.4" stroke-width="6" class="errorBar"></line><path d="M 1885.9999999999995 911 H 1762.6596942304493 V 880.6333333333333" fill="none" stroke="black" stroke-opacity="1" class="treeEdge" vector-effect="non-scaling-stroke" id="node#21"></path><path d="M 1885.9999999999995 850.2666666666667 H 1762.6596942304493 V 880.6333333333333" fill="none" stroke="black" stroke-opacity="1" class="treeEdge" vector-effect="non-scaling-stroke" id="node#22"></path><path d="M 1885.9999999999995 789.5333333333334 H 1759.937071684532 V 835.0833333333333" fill="none" stroke="black" stroke-opacity="1" class="treeEdge" vector-effect="non-scaling-stroke" id="node#23"></path><path d="M 1886 728.8000000000001 H 1866.5118672188144 V 698.4333333333333" fill="none" stroke="black" stroke-opacity="1" class="treeEdge" vector-effect="non-scaling-stroke" id="node#26"></path><path d="M 1886 668.0666666666667 H 1866.5118672188144 V 698.4333333333333" fill="none" stroke="black" stroke-opacity="1" class="treeEdge" vector-effect="non-scaling-stroke" id="node#27"></path><path d="M 1880.737901792545 607.3333333333334 H 1805.1131511507308 V 652.8833333333333" fill="none" stroke="black" stroke-opacity="1" class="treeEdge" vector-effect="non-scaling-stroke" id="node#28"></path><path d="M 1886 546.6 H 1486.8722725530881 V 645.2916666666666" fill="none" stroke="black" stroke-opacity="1" class="treeEdge" vector-effect="non-scaling-stroke" id="node#29"></path><path d="M 1778.7126372175983 485.8666666666667 H 1631.3573330465554 V 455.5" fill="none" stroke="black" stroke-opacity="1" class="treeEdge" vector-effect="non-scaling-stroke" id="node#31"></path><path d="M 1886 425.1333333333333 H 1631.3573330465554 V 455.5" fill="none" stroke="black" stroke-opacity="1" class="treeEdge" vector-effect="non-scaling-stroke" id="node#32"></path><path d="M 1885.9999999999995 364.40000000000003 H 1519.5796792955578 V 364.40000000000003" fill="none" stroke="black" stroke-opacity="1" class="treeEdge" vector-effect="non-scaling-stroke" id="node#8"></path><path d="M 1532.67445350725 303.6666666666667 H 1494.543874156023 V 334.03333333333336" fill="none" stroke="black" stroke-opacity="1" class="treeEdge" vector-effect="non-scaling-stroke" id="node#9"></path><path d="M 1509.1348343693985 242.9333333333334 H 1444.1149541560567 V 242.9333333333334" fill="none" stroke="black" stroke-opacity="1" class="treeEdge" vector-effect="non-scaling-stroke" id="node#12"></path><path d="M 1456.21692267229 182.19999999999996 H 1441.6404646275482 V 212.56666666666672" fill="none" stroke="black" stroke-opacity="1" class="treeEdge" vector-effect="non-scaling-stroke" id="node#13"></path><path d="M 1203.1810321574364 121.46666666666664 H 1156.9392713181783 V 121.46666666666664" fill="none" stroke="black" stroke-opacity="1" class="treeEdge" vector-effect="non-scaling-stroke" id="node#15"></path><path d="M 1237.902826606573 60.73333333333332 H 783.5727766726145 V 217.31145833333332" fill="none" stroke="black" stroke-opacity="1" class="treeEdge" vector-effect="non-scaling-stroke" id="node#33"></path><path d="M 885.9423993461563 0 H 18.67326732673269 V 108.65572916666666" fill="none" stroke="black" stroke-opacity="1" class="treeEdge" vector-effect="non-scaling-stroke" id="node#34"></path><path d="M 1762.6596942304493 880.6333333333333 H 1759.937071684532 V 835.0833333333333" fill="none" stroke="black" stroke-opacity="1" class="treeEdge" vector-effect="non-scaling-stroke" id="node#20"></path><path d="M 1759.937071684532 835.0833333333333 H 1728.1099648198508 V 743.9833333333333" fill="none" stroke="black" stroke-opacity="1" class="treeEdge" vector-effect="non-scaling-stroke" id="node#19"></path><path d="M 1866.5118672188144 698.4333333333333 H 1805.1131511507308 V 652.8833333333333" fill="none" stroke="black" stroke-opacity="1" class="treeEdge" vector-effect="non-scaling-stroke" id="node#25"></path><path d="M 1805.1131511507308 652.8833333333333 H 1728.1099648198508 V 743.9833333333333" fill="none" stroke="black" stroke-opacity="1" class="treeEdge" vector-effect="non-scaling-stroke" id="node#24"></path><path d="M 1728.1099648198508 743.9833333333333 H 1486.8722725530881 V 645.2916666666666" fill="none" stroke="black" stroke-opacity="1" class="treeEdge" vector-effect="non-scaling-stroke" id="node#18"></path><path d="M 1486.8722725530881 645.2916666666666 H 1403.3481724147641 V 550.3958333333333" fill="none" stroke="black" stroke-opacity="1" class="treeEdge" vector-effect="non-scaling-stroke" id="node#17"></path><path d="M 1631.3573330465554 455.5 H 1403.3481724147641 V 550.3958333333333" fill="none" stroke="black" stroke-opacity="1" class="treeEdge" vector-effect="non-scaling-stroke" id="node#30"></path><path d="M 1403.3481724147641 550.3958333333333 H 921.6749219821772 V 373.8895833333333" fill="none" stroke="black" stroke-opacity="1" class="treeEdge" vector-effect="non-scaling-stroke" id="node#16"></path><path d="M 1519.5796792955578 364.40000000000003 H 1494.543874156023 V 334.03333333333336" fill="none" stroke="black" stroke-opacity="1" class="treeEdge" vector-effect="non-scaling-stroke" id="node#7"></path><path d="M 1494.543874156023 334.03333333333336 H 1378.5440371389377 V 273.30000000000007" fill="none" stroke="black" stroke-opacity="1" class="treeEdge" vector-effect="non-scaling-stroke" id="node#6"></path><path d="M 1444.1149541560567 242.9333333333334 H 1441.6404646275482 V 212.56666666666672" fill="none" stroke="black" stroke-opacity="1" class="treeEdge" vector-effect="non-scaling-stroke" id="node#11"></path><path d="M 1441.6404646275482 212.56666666666672 H 1378.5440371389377 V 273.30000000000007" fill="none" stroke="black" stroke-opacity="1" class="treeEdge" vector-effect="non-scaling-stroke" id="node#10"></path><path d="M 1378.5440371389377 273.30000000000007 H 1360.5486700366441 V 273.30000000000007" fill="none" stroke="black" stroke-opacity="1" class="treeEdge" vector-effect="non-scaling-stroke" id="node#5"></path><path d="M 1360.5486700366441 273.30000000000007 H 1120.47762707173 V 197.38333333333335" fill="none" stroke="black" stroke-opacity="1" class="treeEdge" vector-effect="non-scaling-stroke" id="node#4"></path><path d="M 1156.9392713181783 121.46666666666664 H 1120.47762707173 V 197.38333333333335" fill="none" stroke="black" stroke-opacity="1" class="treeEdge" vector-effect="non-scaling-stroke" id="node#14"></path><path d="M 1120.47762707173 197.38333333333335 H 921.6749219821772 V 373.8895833333333" fill="none" stroke="black" stroke-opacity="1" class="treeEdge" vector-effect="non-scaling-stroke" id="node#3"></path><path d="M 921.6749219821772 373.8895833333333 H 783.5727766726145 V 217.31145833333332" fill="none" stroke="black" stroke-opacity="1" class="treeEdge" vector-effect="non-scaling-stroke" id="node#2"></path><path d="M 783.5727766726145 217.31145833333332 H 18.67326732673269 V 108.65572916666666" fill="none" stroke="black" stroke-opacity="1" class="treeEdge" vector-effect="non-scaling-stroke" id="node#1"></path><path d="M 18.67326732673269 108.65572916666666 H 0 V 108.65572916666666" fill="none" stroke="black" stroke-opacity="1" class="treeEdge" vector-effect="non-scaling-stroke" id="node#0"></path><text x="1885.9999999999995" y="911" angle="-45" transform="matrix(1.12192 0 0 1.20054 0 0) matrix(1 0 0 1 -204.952 -152.174) rotate(-45 1886 911)">Ursus_americanus</text><text x="1885.9999999999995" y="850.2666666666667" angle="-45" transform="matrix(1.12192 0 0 1.20054 0 0) matrix(1 0 0 1 -204.952 -142.029) rotate(-45 1886 850.267)">Ursus_thibetanus</text><text x="1885.9999999999995" y="789.5333333333334" angle="-45" transform="matrix(1.12192 0 0 1.20054 0 0) matrix(1 0 0 1 -204.952 -131.884) rotate(-45 1886 789.533)">Helarctos_malayanus</text><text x="1886" y="728.8000000000001" angle="-45" transform="matrix(1.12192 0 0 1.20054 0 0) matrix(1 0 0 1 -204.952 -121.739) rotate(-45 1886 728.8)">Ursus_arctos</text><text x="1886" y="668.0666666666667" angle="-45" transform="matrix(1.12192 0 0 1.20054 0 0) matrix(1 0 0 1 -204.952 -111.594) rotate(-45 1886 668.067)">Ursus_maritimus</text><text x="1880.737901792545" y="607.3333333333334" angle="-45" transform="matrix(1.12192 0 0 1.20054 0 0) matrix(1 0 0 1 -204.38 -101.449) rotate(-45 1880.74 607.333)">Ursus_spelaeus</text><text x="1886" y="546.6" angle="-45" transform="matrix(1.12192 0 0 1.20054 0 0) matrix(1 0 0 1 -204.952 -91.3044) rotate(-45 1886 546.6)">Melursus_ursinus</text><text x="1778.7126372175983" y="485.8666666666667" angle="-45" transform="matrix(1.12192 0 0 1.20054 0 0) matrix(1 0 0 1 -193.293 -81.1594) rotate(-45 1778.71 485.867)">Arctodus_simus</text><text x="1886" y="425.1333333333333" angle="-45" transform="matrix(1.12192 0 0 1.20054 0 0) matrix(1 0 0 1 -204.952 -71.0145) rotate(-45 1886 425.133)">Tremarctos_ornatus</text><text x="1885.9999999999995" y="364.40000000000003" angle="-45" transform="matrix(1.12192 0 0 1.20054 0 0) matrix(1 0 0 1 -204.952 -60.8696) rotate(-45 1886 364.4)">Ailuropoda_melanoleuca</text><text x="1532.67445350725" y="303.6666666666667" angle="-45" transform="matrix(1.12192 0 0 1.20054 0 0) matrix(1 0 0 1 -166.556 -50.7246) rotate(-45 1532.67 303.667)">Agriarctos_spp</text><text x="1509.1348343693985" y="242.9333333333334" angle="-45" transform="matrix(1.12192 0 0 1.20054 0 0) matrix(1 0 0 1 -163.998 -40.5797) rotate(-45 1509.13 242.933)">Indarctos_vireti</text><text x="1456.21692267229" y="182.19999999999996" angle="-45" transform="matrix(1.12192 0 0 1.20054 0 0) matrix(1 0 0 1 -158.247 -30.4348) rotate(-45 1456.22 182.2)">Indarctos_punjabiensis</text><text x="1203.1810321574364" y="121.46666666666664" angle="-45" transform="matrix(1.12192 0 0 1.20054 0 0) matrix(1 0 0 1 -130.75 -20.2899) rotate(-45 1203.18 121.467)">Ursavus_primaevus</text><text x="1237.902826606573" y="60.73333333333332" angle="-45" transform="matrix(1.12192 0 0 1.20054 0 0) matrix(1 0 0 1 -134.523 -10.1449) rotate(-45 1237.9 60.7333)">Ballusia_elmensis</text><text x="885.9423993461563" y="0" angle="-45" transform="matrix(1.12192 0 0 1.20054 0 0) matrix(1 0 0 1 -96.2753 0) rotate(-45 885.942 0.00000968144)">Zaragocyon_daamsi</text><text x="1767.6596942304493" y="880.6333333333333" angle="-45" transform="matrix(1.12192 0 0 1.20054 0 0) matrix(1 0 0 1 -192.091 -147.101) translate(0.54335 0) rotate(-45 1767.66 880.633)" pixelOffsetX="5" pixelOffsetY="0" class="internalText"></text><text x="1764.937071684532" y="835.0833333333333" angle="-45" transform="matrix(1.12192 0 0 1.20054 0 0) matrix(1 0 0 1 -191.796 -139.493) translate(0.54335 0) rotate(-45 1764.94 835.083)" pixelOffsetX="5" pixelOffsetY="0" class="internalText"></text><text x="1871.5118672188144" y="698.4333333333333" angle="-45" transform="matrix(1.12192 0 0 1.20054 0 0) matrix(1 0 0 1 -203.377 -116.667) translate(0.54335 0) rotate(-45 1871.51 698.433)" pixelOffsetX="5" pixelOffsetY="0" class="internalText"></text><text x="1810.1131511507308" y="652.8833333333333" angle="-45" transform="matrix(1.12192 0 0 1.20054 0 0) matrix(1 0 0 1 -196.705 -109.058) translate(0.54335 0) rotate(-45 1810.11 652.883)" pixelOffsetX="5" pixelOffsetY="0" class="internalText"></text><text x="1733.1099648198508" y="743.9833333333333" angle="-45" transform="matrix(1.12192 0 0 1.20054 0 0) matrix(1 0 0 1 -188.337 -124.275) translate(0.54335 0) rotate(-45 1733.11 743.983)" pixelOffsetX="5" pixelOffsetY="0" class="internalText"></text><text x="1491.8722725530881" y="645.2916666666666" angle="-45" transform="matrix(1.12192 0 0 1.20054 0 0) matrix(1 0 0 1 -162.122 -107.79) translate(0.54335 0) rotate(-45 1491.87 645.292)" pixelOffsetX="5" pixelOffsetY="0" class="internalText"></text><text x="1636.3573330465554" y="455.5" angle="-45" transform="matrix(1.12192 0 0 1.20054 0 0) matrix(1 0 0 1 -177.823 -76.087) translate(0.54335 0) rotate(-45 1636.36 455.5)" pixelOffsetX="5" pixelOffsetY="0" class="internalText"></text><text x="1408.3481724147641" y="550.3958333333333" angle="-45" transform="matrix(1.12192 0 0 1.20054 0 0) matrix(1 0 0 1 -153.045 -91.9384) translate(0.54335 0) rotate(-45 1408.35 550.396)" pixelOffsetX="5" pixelOffsetY="0" class="internalText"></text><text x="1519.5796792955578" y="359.40000000000003" angle="-45" transform="matrix(1.12192 0 0 1.20054 0 0) matrix(1 0 0 1 -165.133 -60.0344) translate(0 -0.835203) rotate(-45 1519.58 359.4)" pixelOffsetX="0" pixelOffsetY="-5" class="internalText">Ailurarctos_lufengensis</text><text x="1499.543874156023" y="334.03333333333336" angle="-45" transform="matrix(1.12192 0 0 1.20054 0 0) matrix(1 0 0 1 -162.955 -55.7971) translate(0.54335 0) rotate(-45 1499.54 334.033)" pixelOffsetX="5" pixelOffsetY="0" class="internalText"></text><text x="1444.1149541560567" y="237.9333333333334" angle="-45" transform="matrix(1.12192 0 0 1.20054 0 0) matrix(1 0 0 1 -156.932 -39.7445) translate(0 -0.835203) rotate(-45 1444.11 237.933)" pixelOffsetX="0" pixelOffsetY="-5" class="internalText">Indarctos_arctoides</text><text x="1446.6404646275482" y="212.56666666666672" angle="-45" transform="matrix(1.12192 0 0 1.20054 0 0) matrix(1 0 0 1 -157.206 -35.5072) translate(0.54335 0) rotate(-45 1446.64 212.567)" pixelOffsetX="5" pixelOffsetY="0" class="internalText"></text><text x="1383.5440371389377" y="273.30000000000007" angle="-45" transform="matrix(1.12192 0 0 1.20054 0 0) matrix(1 0 0 1 -150.35 -45.6522) translate(0.54335 0) rotate(-45 1383.54 273.3)" pixelOffsetX="5" pixelOffsetY="0" class="internalText"></text><text x="1360.5486700366441" y="268.30000000000007" angle="-45" transform="matrix(1.12192 0 0 1.20054 0 0) matrix(1 0 0 1 -147.851 -44.817) translate(0 -0.835203) rotate(-45 1360.55 268.3)" pixelOffsetX="0" pixelOffsetY="-5" class="internalText">Kretzoiarctos_beatrix</text><text x="1156.9392713181783" y="116.46666666666664" angle="-45" transform="matrix(1.12192 0 0 1.20054 0 0) matrix(1 0 0 1 -125.725 -19.4547) translate(0 -0.835203) rotate(-45 1156.94 116.467)" pixelOffsetX="0" pixelOffsetY="-5" class="internalText">Ursavus_brevirhinus</text><text x="1125.47762707173" y="197.38333333333335" angle="-45" transform="matrix(1.12192 0 0 1.20054 0 0) matrix(1 0 0 1 -122.306 -32.971) translate(0.54335 0) rotate(-45 1125.48 197.383)" pixelOffsetX="5" pixelOffsetY="0" class="internalText"></text><text x="926.6749219821772" y="373.8895833333333" angle="-45" transform="matrix(1.12192 0 0 1.20054 0 0) matrix(1 0 0 1 -100.702 -62.4547) translate(0.54335 0) rotate(-45 926.675 373.89)" pixelOffsetX="5" pixelOffsetY="0" class="internalText"></text><text x="788.5727766726145" y="217.31145833333332" angle="-45" transform="matrix(1.12192 0 0 1.20054 0 0) matrix(1 0 0 1 -85.6942 -36.2998) translate(0.54335 0) rotate(-45 788.573 217.311)" pixelOffsetX="5" pixelOffsetY="0" class="internalText"></text><text x="23.67326732673269" y="108.65572916666666" angle="-45" transform="matrix(1.12192 0 0 1.20054 0 0) matrix(1 0 0 1 -2.57257 -18.1499) translate(0.54335 0) rotate(-45 23.6733 108.656)" pixelOffsetX="5" pixelOffsetY="0" class="internalText"></text><ellipse cx="1519.5796792955578" cy="364.40000000000003" rx="4.487675429148992" ry="4.8021544405186605" fill="black" shape-rendering="auto" class="internalNodeMark"></ellipse><ellipse cx="1444.1149541560567" cy="242.9333333333334" rx="4.487675429148992" ry="4.8021544405186605" fill="black" shape-rendering="auto" class="internalNodeMark"></ellipse><ellipse cx="1360.5486700366441" cy="273.30000000000007" rx="4.487675429148992" ry="4.8021544405186605" fill="black" shape-rendering="auto" class="internalNodeMark"></ellipse><ellipse cx="1156.9392713181783" cy="121.46666666666664" rx="4.487675429148992" ry="4.8021544405186605" fill="black" shape-rendering="auto" class="internalNodeMark"></ellipse><line x1="1886" y1="933.8284759521486" x2="1886" y2="-159.8621978759766" stroke="gray" stroke-width="1px" vector-effect="non-scaling-stroke" class="axisComponent"></line><text x="1886" y="933.8284759521486" fill="gray" class="axisComponent" transform="matrix(1.12192 0 0 1.20054 0 0) matrix(1 0 0 1 -204.952 -155.987)">0</text><line x1="1429.9569612037149" y1="933.8284759521486" x2="1429.9569612037149" y2="-159.8621978759766" stroke="gray" stroke-width="1px" vector-effect="non-scaling-stroke" class="axisComponent"></line><text x="1429.9569612037149" y="933.8284759521486" fill="gray" class="axisComponent" transform="matrix(1.12192 0 0 1.20054 0 0) matrix(1 0 0 1 -155.393 -155.987)">10</text><line x1="973.9139224074296" y1="933.8284759521486" x2="973.9139224074296" y2="-159.8621978759766" stroke="gray" stroke-width="1px" vector-effect="non-scaling-stroke" class="axisComponent"></line><text x="973.9139224074296" y="933.8284759521486" fill="gray" class="axisComponent" transform="matrix(1.12192 0 0 1.20054 0 0) matrix(1 0 0 1 -105.835 -155.987)">20</text><line x1="517.8708836111444" y1="933.8284759521486" x2="517.8708836111444" y2="-159.8621978759766" stroke="gray" stroke-width="1px" vector-effect="non-scaling-stroke" class="axisComponent"></line><text x="517.8708836111444" y="933.8284759521486" fill="gray" class="axisComponent" transform="matrix(1.12192 0 0 1.20054 0 0) matrix(1 0 0 1 -56.277 -155.987)">30</text><line x1="61.82784481485927" y1="933.8284759521486" x2="61.82784481485927" y2="-159.8621978759766" stroke="gray" stroke-width="1px" vector-effect="non-scaling-stroke" class="axisComponent"></line><text x="61.82784481485927" y="933.8284759521486" fill="gray" class="axisComponent" transform="matrix(1.12192 0 0 1.20054 0 0) matrix(1 0 0 1 -6.71883 -155.987)">40</text></svg>